<svg width="22" height="24" viewBox="0 0 22 24" fill="none" xmlns="http://www.w3.org/2000/svg">
<g id="Group">
<path id="Vector" d="M17.2105 16.1435C16.0606 16.1435 15.0246 16.64 14.3055 17.43L7.83806 13.4244C8.01073 12.9823 8.10649 12.5022 8.10649 12C8.10649 11.4975 8.01073 11.0174 7.83806 10.5756L14.3055 6.56981C15.0246 7.35973 16.0606 7.85649 17.2105 7.85649C19.3766 7.85649 21.1388 6.09429 21.1388 3.92815C21.1388 1.76202 19.3766 0 17.2105 0C15.0443 0 13.2821 1.7622 13.2821 3.92834C13.2821 4.43059 13.3781 4.9107 13.5506 5.35271L7.0833 9.35832C6.36425 8.5684 5.32824 8.07164 4.17834 8.07164C2.0122 8.07164 0.25 9.83403 0.25 12C0.25 14.1661 2.0122 15.9283 4.17834 15.9283C5.32824 15.9283 6.36425 15.4317 7.0833 14.6416L13.5506 18.6472C13.3781 19.0893 13.2821 19.5694 13.2821 20.0718C13.2821 22.2377 15.0443 24 17.2105 24C19.3766 24 21.1388 22.2377 21.1388 20.0718C21.1388 17.9057 19.3766 16.1435 17.2105 16.1435V16.1435ZM14.7146 3.92834C14.7146 2.55212 15.8343 1.43243 17.2105 1.43243C18.5867 1.43243 19.7064 2.55212 19.7064 3.92834C19.7064 5.30455 18.5867 6.42424 17.2105 6.42424C15.8343 6.42424 14.7146 5.30455 14.7146 3.92834ZM4.17834 14.4959C2.80194 14.4959 1.68225 13.3762 1.68225 12C1.68225 10.6238 2.80194 9.50407 4.17834 9.50407C5.55456 9.50407 6.67406 10.6238 6.67406 12C6.67406 13.3762 5.55456 14.4959 4.17834 14.4959ZM14.7146 20.0716C14.7146 18.6954 15.8343 17.5757 17.2105 17.5757C18.5867 17.5757 19.7064 18.6954 19.7064 20.0716C19.7064 21.4478 18.5867 22.5675 17.2105 22.5675C15.8343 22.5675 14.7146 21.4478 14.7146 20.0716Z" fill="white"/>
</g>
</svg>
